# xmcd CD database file
#
# Track frame offsets:
#	150
#	22354
#	42893
#	63897
#	81073
#	99452
#	115759
#	132404
#	147075
#	169107
#	192683
#	213610
#	230919
#	249738
#	273589
#	290296
#
# Disc length: 4144 seconds
#
# Revision: 0
# Processed by: cddbd v1.5.2PL0 Copyright (c) Steve Scherf et al.
# Submitted via: CDex 1.50beta10
#
DISCID=f8102e10
DTITLE=Varios - Vivir en equilibrio
DYEAR=2002
DGENRE=New Age
TTITLE0=Who Wants To Live Forever
TTITLE1=Beyond The Sundial
TTITLE2=Hymn
TTITLE3=Forever Young
TTITLE4=The Golden Land
TTITLE5=Moon Over Cairo
TTITLE6=El Cóndor Pasa
TTITLE7=Melody Of Love
TTITLE8=Ozero Baykal
TTITLE9=Long Way To 'Nka Ea'
TTITLE10=Twenty Eight Parallel
TTITLE11=Mysterious Green Island
TTITLE12=Silence
TTITLE13=One Moment In Time
TTITLE14=The Sounds Of Silence
TTITLE15=Sunrise Over Serengeti
EXTD=YEAR: 2002
EXTT0=
EXTT1=
EXTT2=
EXTT3=
EXTT4=
EXTT5=
EXTT6=
EXTT7=
EXTT8=
EXTT9=
EXTT10=
EXTT11=
EXTT12=
EXTT13=
EXTT14=
EXTT15=
PLAYORDER=
